<?xml version="1.0" encoding="UTF-8"?>
<svg id="Layer_1" data-name="Layer 1" xmlns="http://www.w3.org/2000/svg" viewBox="0 0 595.28 231">
  <defs>
    <style>
      .cls-1 {
        fill: #1b1e22;
        stroke-width: 0px;
      }
    </style>
  </defs>
  <path class="cls-1" d="M262.77,53.46c-30.09,0-49.6,23.48-57.87,41-1.32,2.65-2.98,6.61-6.94,4.96-4.3-1.65-.99-8.27,1.65-13.56,2.65-5.29,4.3-10.91,4.3-18.85v-8.27h0c-29.22,0-52.91,23.69-52.91,52.91v94.5h52.91l.38-61.68c0-32.9,14.15-46.61,35.65-46.61,18.85,0,32.75,11.48,32.75,50.83v57.46h52.91v-78.63c0-49.6-25.13-74.07-62.83-74.07Z"/>
  <path class="cls-1" d="M504.86,101.08c12.47,0,22.58-10.11,22.58-22.58v-19.74h-47.62V24.84h-52.91v127.74c0,42,16.53,53.57,51.59,53.57h48.94v-42.33h-31.74c-15.21,0-15.87-.66-15.87-17.2v-45.56h25.03Z"/>
  <path class="cls-1" d="M376.41,78.63c-10.2,0-19.47-4.53-26.37-11.94v139.47h52.47V66.97c-6.87,7.24-16.04,11.66-26.11,11.66Z"/>
  <path class="cls-1" d="M376.33,68.69c11.85,0,21.46-9.63,21.46-21.5s-9.61-21.5-21.46-21.5-21.46,9.63-21.46,21.5,9.61,21.5,21.46,21.5Z"/>
  <path class="cls-1" d="M100.63,78.63c-10.2,0-19.47-4.53-26.37-11.94v139.47h52.47V66.97c-6.87,7.24-16.04,11.66-26.11,11.66Z"/>
  <ellipse class="cls-1" cx="100.54" cy="47.19" rx="21.46" ry="21.5"/>
</svg>